# xmcd CD database file
#
# Track frame offsets:
#	150
#	15168
#	29657
#	44537
#	57911
#	72122
#	85135
#	97729
#	113277
#	127543
#	142451
#	156438
#	172042
#	188036
#	203556
#	217878
#	232423
#	247888
#	262628
#	277758
#
# Disc length: 3901 seconds
#
# Revision: 0
# Processed by: cddbd v1.5.1PL0 Copyright (c) Steve Scherf et al.
# Submitted via: CDex 1.51
#
DISCID=040f3b14
DTITLE=Glenn Miller - 20 succès
DYEAR=1900
DGENRE=Jazz
TTITLE0=Moonlight serenade
TTITLE1=Pagan love song
TTITLE2=Indian summer
TTITLE3=Rug cutter swing
TTITLE4=Slow freight
TTITLE5=Bugle call rag
TTITLE6=Blueberry hill
TTITLE7=Chattanooga choo-choo
TTITLE8=Elmer's tune
TTITLE9=Moonlight cocktail
TTITLE10=My reverie
TTITLE11=King Porter stomp
TTITLE12=In the mood
TTITLE13=Tuxedo junction
TTITLE14=My blue heaven
TTITLE15=Pennsylvania 6-5000
TTITLE16=Song of the Volga boatmen
TTITLE17=A string of pearls
TTITLE18=American patrol
TTITLE19=(I've got a gal in) Kalamazoo
EXTD=
EXTT0=
EXTT1=
EXTT2=
EXTT3=
EXTT4=
EXTT5=
EXTT6=
EXTT7=
EXTT8=
EXTT9=
EXTT10=
EXTT11=
EXTT12=
EXTT13=
EXTT14=
EXTT15=
EXTT16=
EXTT17=
EXTT18=
EXTT19=
PLAYORDER=
